<svg width="220" height="44" viewBox="0 0 220 44" fill="none" xmlns="http://www.w3.org/2000/svg">
<path d="M35.7215 18.9456C35.1053 18.5902 34.32 18.8013 33.9631 19.4159L24.5081 35.7929C24.1527 36.409 24.3638 37.1959 24.9784 37.5513C25.1817 37.6693 25.4021 37.7251 25.6209 37.7251C26.0663 37.7251 26.4978 37.4939 26.7368 37.081L36.1918 20.704C36.5472 20.0879 36.3377 19.2995 35.7215 18.9456Z" fill="white"/>
<path d="M39.2306 25.0218C38.6145 24.6648 37.8276 24.8774 37.4722 25.492L31.5248 35.7929C31.1694 36.409 31.3805 37.1959 31.9951 37.5513C32.1984 37.6693 32.4188 37.7251 32.6376 37.7251C33.0831 37.7251 33.5145 37.4939 33.7535 37.081L39.7009 26.7802C40.0579 26.1656 39.8468 25.3772 39.2306 25.0218Z" fill="white"/>
<path d="M42.7367 31.0964C42.1205 30.741 41.3336 30.9521 40.9782 31.5667L38.5384 35.7929C38.183 36.409 38.3941 37.1959 39.0087 37.5513C39.212 37.6693 39.4324 37.7252 39.6512 37.7252C40.0967 37.7252 40.5281 37.4939 40.7671 37.0811L43.2069 32.8549C43.5639 32.2387 43.3528 31.4519 42.7367 31.0964Z" fill="#00AEEF"/>
<path d="M37.6258 12.0779C36.9538 10.9123 34.4224 6.43936 34.4224 6.43936C34.4224 6.43936 31.8538 10.9123 31.1834 12.0763L30.6619 12.9781L28.413 16.8767H28.4176C28.0902 17.4867 28.3012 18.2503 28.905 18.5979C29.1083 18.7159 29.3302 18.7718 29.5475 18.7718C29.9929 18.7718 30.4244 18.5405 30.6634 18.1277L33.6231 12.9796L34.4085 11.6123L49.4274 37.7251H52.3965L37.6258 12.0779Z" fill="white"/>
<path d="M28.0948 22.5742H28.0917C28.4254 21.9627 28.2174 21.196 27.6106 20.8453C26.9944 20.4899 26.2076 20.7009 25.8521 21.3155L16.3661 37.7236H19.3383L28.0948 22.5742Z" fill="white"/>
<path d="M67.2587 16.869H67.2463C66.8955 16.8752 66.5773 17.0832 66.4423 17.3951L61.9911 27.2133H63.9622L67.2944 19.8629L70.9587 27.2955H72.9608L68.0626 17.3687C67.9121 17.0599 67.6048 16.869 67.2587 16.869Z" fill="white"/>
<path d="M80.7815 18.6166H84.6088V27.2133H86.4045V18.6166H90.2364V16.869H80.7815V18.6166Z" fill="white"/>
<path d="M145.417 21.0719H139.282V18.5436H145.804V16.9016H138.463C138.009 16.9016 137.64 17.271 137.64 17.7211V21.8914C137.64 22.3445 138.009 22.7139 138.463 22.7139H144.595V25.5386H138.076V27.1807H145.417C145.867 27.1807 146.237 26.8113 146.237 26.3581V21.8929C146.237 21.4413 145.867 21.0719 145.417 21.0719Z" fill="white"/>
<path d="M102.929 16.869H101.133V27.2133H109.373V25.5681H102.929V16.869Z" fill="white"/>
<path d="M122.286 16.869H122.27C121.923 16.8752 121.608 17.0801 121.466 17.3951L117.015 27.2133H118.989L122.318 19.8629L125.983 27.2955H127.988L123.09 17.3718C122.942 17.0661 122.627 16.869 122.286 16.869Z" fill="white"/>
<path d="M204.708 18.0842V17.2151L197.244 17.2818V26.8532H204.708V25.9825H198.264V22.4765H204.708V21.6073H198.264V18.0842H204.708Z" fill="white"/>
<path d="M164.833 17.257H158.173C157.933 17.257 157.739 17.451 157.739 17.6916V26.3907C157.739 26.6312 157.933 26.8252 158.173 26.8252H164.833C165.074 26.8252 165.268 26.6312 165.268 26.3907V17.6916C165.268 17.4525 165.074 17.257 164.833 17.257ZM164.399 25.9561H158.608V18.1261H164.399V25.9561Z" fill="white"/>
<path d="M184.873 25.1584L177.519 17.4588C177.395 17.3299 177.204 17.288 177.043 17.3548C176.877 17.42 176.77 17.5814 176.77 18.3822V26.8671H177.639V18.8432L184.992 26.5428C185.076 26.6312 185.191 26.6778 185.308 26.6778C185.362 26.6778 185.418 26.6685 185.469 26.6468C185.635 26.5816 185.742 26.4202 185.742 26.2432V17.2679H184.873V25.1584Z" fill="white"/>
</svg>
